<svg class="icon" viewBox="0 0 24 19" fill="#de004a">
    <path fill-rule="evenodd" d="M21.545 0c.527 0 .979.193 1.354.581.375.388.563.854.563 1.398v15.042a1.94 1.94 0 0 1-.563 1.398 1.815 1.815 0 0 1-1.354.581H2.378c-.527 0-.979-.193-1.354-.581a1.94 1.94 0 0 1-.562-1.398V1.979c0-.544.187-1.01.562-1.398A1.815 1.815 0 0 1 2.378 0h19.167Zm0 1.583H2.378a.36.36 0 0 0-.27.118.387.387 0 0 0-.114.278v12.658L7.36 9.5l1.916 1.98 6.134-6.334 6.518 6.285V1.979c0-.107-.039-.2-.114-.278a.36.36 0 0 0-.27-.118ZM8.128 5.542c0 .66-.223 1.22-.67 1.682-.448.462-.991.693-1.63.693-.64 0-1.182-.23-1.63-.693a2.328 2.328 0 0 1-.67-1.682c0-.66.223-1.221.67-1.683.448-.462.99-.693 1.63-.693.639 0 1.182.231 1.63.693.447.462.67 1.023.67 1.683Z">
    </path>
</svg>